<svg width="2338" height="2339" xmlns="http://www.w3.org/2000/svg" xmlns:xlink="http://www.w3.org/1999/xlink" xml:space="preserve" overflow="hidden"><defs><clipPath id="clip0"><rect x="1031" y="68" width="2338" height="2339"/></clipPath></defs><g clip-path="url(#clip0)" transform="translate(-1031 -68)"><path d="M1031 1237.5C1031 591.603 1554.38 68.0001 2200 68.0001 2845.62 68.0001 3369 591.603 3369 1237.5 3369 1883.4 2845.62 2407 2200 2407 1554.38 2407 1031 1883.4 1031 1237.5Z" fill="#C00000" fill-rule="evenodd"/><path d="M269.06 207.907C273.326 208.296 275.672 209.302 278.962 208.411 282.252 207.52 285.582 204.317 288.8 202.561 292.017 200.806 294.173 198.421 298.267 197.877 302.361 197.333 301.613 200.356 313.363 199.297 325.114 198.238 356.672 194.114 368.772 191.524 380.872 188.934 357.205 183.301 385.967 183.758 414.728 184.215 513.73 189.505 541.34 194.264 568.95 199.023 553.672 207.136 551.626 212.312 549.58 217.488 536.273 218.441 529.065 225.32 521.857 232.2 516.108 248.545 508.379 253.59 500.65 258.634 490.947 254.514 482.69 255.586 474.433 256.659 469.438 260.985 460.671 262.908 451.904 264.831 449.661 261.872 443.545 262.464 437.429 263.056 435.802 263.818 429.477 267.567 423.152 271.315 413.811 280.352 405.596 284.956 397.381 289.56 387.015 292.023 380.188 295.189 373.362 298.355 371.623 302.078 364.638 303.952 357.652 305.825 346.175 305.445 338.275 306.43 330.375 307.416 323.003 309.531 317.238 309.864 311.472 310.197 308.678 308.54 303.684 308.429 298.689 308.318 291.644 307.672 287.272 309.198 282.901 310.724 281.816 316.121 277.455 317.585 273.094 319.048 265.677 318.693 261.105 317.979 256.533 317.266 253.995 314.327 250.021 313.303 246.048 312.279 242.664 315.856 236.801 315.445 230.938 315.035 220.553 311.375 214.844 310.838 209.136 310.3 206.365 310.643 202.55 312.221 198.735 313.8 196.201 319.229 191.956 320.309 187.711 321.388 181.52 320.509 177.082 318.696 172.644 316.884 169.417 310.67 165.33 309.432 161.242 308.195 156.612 310.247 152.556 311.272 148.5 312.297 144.767 314.928 140.994 315.583 137.221 316.239 133.001 316.516 129.918 315.207 126.836 313.898 125.651 309.206 122.499 307.728 119.347 306.25 113.94 305.68 111.006 306.341 108.072 307.002 106.988 311.634 104.892 311.695 102.796 311.756 99.0552 310.097 96.9959 308.126 94.9365 306.156 97.3897 303.286 92.5363 299.872 87.6829 296.459 72.69 292.63 67.8752 287.643 63.0605 282.655 68.8229 279.556 66.0752 277.094 63.3276 274.632 54.9986 275.372 51.3888 272.87 47.7789 270.367 50.7253 265.438 48.1424 262.33 45.5596 259.221 44.3013 253.673 40.4554 251.188 36.6097 248.702 30.2141 248.78 27.369 245.751 24.5238 242.721 24.2394 239.391 23.2986 236.95 22.3579 234.508 23.327 233.028 21.7246 231.103 20.1222 229.177 14.1977 230.088 13.6836 225.399 13.1696 220.71 16.8904 211.754 15.3185 206.082 13.7467 200.411 7.25429 195.116 7.45913 189.16 7.66398 183.204 12.9387 175.074 11.4628 170.914 9.98699 166.754 5.86035 167.879 4.96912 163.417 4.07789 158.956 6.92606 148.234 6.11566 144.144 5.30525 140.055-0.881394 144.431 0.106486 138.882 1.09437 133.333 8.10018 125.357 7.91351 120.286 7.72684 115.214 3.11738 112.069 4.59963 107.009 6.08187 101.949 11.2492 98.5544 10.732 94.9781 10.2149 91.4019 5.49877 86.6321 6.3977 83.1505 7.29662 79.669 10.9186 76.1651 11.3114 72.5491 11.7042 68.933 8.21137 64.351 8.75428 61.4543 9.29719 58.5577 16.4138 57.6209 18.7101 55.4488 21.0063 53.2768 20.1844 50.9954 22.532 48.422 24.8796 45.8487 26.5594 41.9654 28.6551 39.7291 30.7508 37.4929 35.3344 38.6626 37.6966 37.608 40.0587 36.5535 39.1639 26.6783 41.6141 23.3024 44.0643 19.9266 48.6336 21.753 51.9747 20.6634 55.3157 19.5737 54.659 14.3689 57.9825 12.8733 61.306 11.3777 68.6704 14.2025 71.9153 11.6897 75.1601 9.17698 77.392 3.10663 81.1293 1.68799 84.8665 0.269355 89.523 0.019248 92.2399 0.000466618 94.9568-0.0183148 95.9528 0.664114 97.4312 1.57507 98.9096 2.48602 102.329 2.46258 101.11 5.4662 99.8906 8.46994 93.7508 11.8494 93.6292 14.9779 93.5075 18.1063 98.2279 19.8417 96.654 23.985 96.3227 30.3387 89.8442 35.8692 90.252 38.1227 90.6598 40.3762 98.2549 34.869 96.3858 39.1441 94.5168 43.4193 86.7773 48.9674 87.6538 51.9103 88.5305 54.8533 97.3145 52.0841 96.4934 54.6323 95.6723 57.1805 92.0133 60.4406 91.5852 63.2447 91.1571 66.0489 94.4492 68.3797 93.9245 71.4574 93.3997 74.5351 88.1077 78.2991 88.437 81.7109 88.7663 85.1227 93.6198 88.5367 92.5883 91.7048 91.5568 94.8729 86.123 97.0861 86.8408 100.727 87.5586 104.367 93.5045 103.048 93.3702 108.453 93.3407 118.545 90.0613 120.053 91.4075 123.801 92.7538 127.55 98.3515 127.396 98.9633 130.776 99.5751 134.156 92.659 141.354 95.0785 144.083 97.4979 146.812 105.706 146.968 108.204 149.219 110.701 151.471 108.204 157.882 109.92 160.468 111.635 163.054 117.264 161.878 118.498 164.736 119.732 167.593 113.357 174.798 115.546 177.479 117.736 180.159 127.122 183.309 127.628 185.97 128.133 188.63 117.711 190.098 118.579 193.442 119.447 196.786 133.334 201.77 133.504 205.436 133.674 209.102 128.075 217.861 129.749 220.121 131.423 222.381 140.777 216.715 143.55 218.994 146.323 221.274 147.838 224.219 150.63 226.33 153.423 228.441 157.105 230.778 160.306 231.661 163.507 232.544 166.834 232.232 169.836 231.625 172.837 231.019 174.584 228.769 178.312 228.021 182.041 227.273 187.401 228.713 192.206 227.138 197.012 225.563 203.39 222.918 206.84 220.976 210.29 219.034 210.665 215.928 212.908 215.484 215.151 215.04 216.247 218.951 220.296 218.314 224.345 217.677 233.572 217.387 237.038 216.203 240.504 215.02 238.37 212.902 241.092 211.214 243.813 209.526 248.707 206.626 253.368 206.075 258.029 205.524 264.795 207.517 269.06 207.907Z" stroke="#A6A6A6" stroke-width="6.875" stroke-miterlimit="8" fill="#A6A6A6" fill-rule="evenodd" transform="matrix(0.959172 0.282823 0.282823 -0.959172 1460.19 1709.64)"/><path d="M2787.07 1572.08C2791.42 1630.87 2802.47 1681.09 2806.84 1725.23 2811.21 1769.37 2835.6 1818.98 2813.28 1836.92 2768.44 1826.32 2776.72 1782.62 2748.26 1764.13 2719.8 1745.63 2740.53 1735.74 2642.53 1725.94 2558.36 1726.19 2571.66 1680.02 2513.85 1688.18 2456.03 1696.34 2377.42 1771.23 2295.65 1774.88 2213.87 1778.53 2088.08 1720.48 2023.22 1710.09 1958.37 1699.7 2018 1692.33 1906.53 1712.54 1752.15 1734.44 1827.73 1842.37 1731.24 1868.78 1701.18 1830.84 1693.94 1811.79 1688.96 1774.56 1683.99 1737.32 1712.2 1695.69 1701.41 1645.39 1702.83 1570.23 1710.38 1550.23 1711.8 1475.07L1730.76 1362.87C1756.79 1284.71 1751.08 1294.19 1773.47 1239.85 1795.87 1185.51 1813.14 1093.41 1865.15 1036.82 1898.9 1000.31 1937.56 965.852 1965.73 947.356 1994.65 933.185 2175.57 882.562 2211.65 890.761 2281.56 895.493 2379.18 922.298 2422.05 935.733 2479.6 954.406 2490.07 1006.03 2522.53 1045.23 2554.98 1084.44 2587.75 1129.07 2616.79 1170.98 2645.84 1212.89 2667.25 1256.63 2696.81 1296.69 2707.86 1330.65 2736.15 1346.7 2747.78 1406.77 2760.88 1461.88 2776.26 1497.46 2787.07 1572.08Z" fill="#BFBFBF" fill-rule="evenodd"/><path d="M1999.42 847.943C1990.24 787.28 1983.91 644.097 2042.95 603.346 2101.99 562.595 2292.6 574.438 2353.65 603.434 2414.69 632.43 2404.47 720.817 2409.23 777.323 2413.99 833.828 2417.02 876.764 2383.02 915.811 2349.02 954.857 2244.64 1019.53 2205.22 1011.6 2165.81 1003.68 2130.45 989.667 2098.07 967.321 2065.68 944.975 2008.61 908.605 1999.42 847.943Z" fill="#A6A6A6" fill-rule="evenodd"/><path d="M2036.1 802.879C2028.61 781.301 2028.22 737.919 2034.81 725.074 2041.41 712.228 2062.1 717.843 2075.68 725.805 2089.26 733.767 2106.12 751.89 2116.3 772.847 2130.35 816.535 2138.29 846.55 2132.2 860.166 2126.11 873.781 2093.96 863.585 2079.78 854.542 2065.59 845.498 2043.6 824.457 2036.1 802.879Z" fill="#595959" fill-rule="evenodd"/><path d="M2043.88 795.173C2038.04 766.764 2039.47 737.163 2050.35 734.298 2061.24 731.434 2090.17 736.383 2109.16 777.986 2122.08 817.248 2120.73 836.986 2115.2 848.247 2109.68 859.509 2090.62 852.728 2075.98 845.555 2062.97 834.803 2049.71 823.582 2043.88 795.173Z" fill-rule="evenodd"/><path d="M0.0376009 76.3586C0.862277 53.5312 16.199 12.9495 26.998 3.36265 37.7969-6.22419 55.0527 6.4996 64.8311 18.838 74.6095 31.1763 83.7608 54.1705 85.6683 77.3926 82.9492 123.204 79.4854 154.056 68.8824 164.545 58.2793 175.034 32.0005 153.892 22.0502 140.327 12.0998 126.762-0.787076 99.1861 0.0376009 76.3586Z" fill="#595959" fill-rule="evenodd" transform="matrix(-0.994243 -0.107148 -0.107148 0.994243 2387.69 698.905)"/><path d="M1952.56 625.302C1945.12 625.277 1936.47 639.494 1927.53 642.445 1917.12 638.336 1922.56 638.628 1925.78 629.424 1929.01 620.221 1927.92 595.561 1946.87 587.225 1965.83 578.89 1976.8 583.31 1989.66 591.876 2002.53 600.441 2019.53 624.101 2024.08 638.619 2028.64 653.137 2019.41 662.84 2016.99 678.983 2014.56 695.126 2014.06 733.507 2009.52 735.477 2004.98 737.447 1996.93 703.035 1989.73 690.803 1982.54 678.571 1982.14 663.142 1972.19 642.595 1964.71 632.835 1960.01 625.327 1952.56 625.302Z" fill="#595959" fill-rule="evenodd"/><path d="M2363.46 627.755C2371.04 613.575 2406.41 583.597 2424.73 576.067 2443.04 568.538 2461.56 577.089 2473.35 582.578 2485.14 588.067 2498.12 604.199 2503.61 610.556 2509.1 616.913 2518.65 624.545 2508.52 631.309 2498.39 638.072 2467.5 616.24 2454.45 617.581 2441.39 618.922 2437.32 630.247 2430.18 639.354 2423.03 648.461 2419.41 663.669 2411.56 672.221 2403.72 680.774 2415.43 704.492 2401.01 708.579 2394.61 707.184 2384.64 672.14 2379.22 661.146 2373.79 650.152 2355.87 641.935 2363.46 627.755Z" fill="#595959" fill-rule="evenodd"/><path d="M0.414384 56.5582C3.03204 27.6587 13.499-0.327402 25.5732 0.00272997 37.6474 0.332862 65.9374 13.2632 72.8597 58.5394 74.2441 99.8533 66.8643 118.404 57.75 127.642 48.6358 136.879 31.0755 124.986 18.1737 113.964 8.04089 99.9707-2.20328 85.4578 0.414384 56.5582Z" fill-rule="evenodd" transform="matrix(-0.996296 -0.0859908 -0.0859908 0.996296 2378.03 715.135)"/><path d="M2087.54 760.066C2088.52 764.514 2087.52 769.583 2084.51 770.693 2081.51 771.804 2073.79 772.64 2069.53 766.729 2066.86 760.863 2067.63 757.461 2069.36 755.245 2071.1 753.028 2076.11 753.071 2079.92 753.433 2083.21 754.493 2086.56 755.618 2087.54 760.066Z" fill="#FFFFFF" fill-rule="evenodd"/><path d="M2361.36 740.599C2362.34 745.047 2361.33 750.116 2358.33 751.227 2355.33 752.337 2347.61 753.174 2343.34 747.263 2340.67 741.396 2341.45 737.994 2343.18 735.778 2344.91 733.562 2349.92 733.604 2353.73 733.967 2357.02 735.027 2360.37 736.151 2361.36 740.599Z" fill="#FFFFFF" fill-rule="evenodd"/><path d="M2342.46 728.781C2342.07 727.029 2342.47 725.034 2343.65 724.597 2344.83 724.159 2347.87 723.83 2349.55 726.157 2350.6 728.467 2350.3 729.807 2349.61 730.679 2348.93 731.552 2346.96 731.535 2345.46 731.392 2344.16 730.975 2342.85 730.532 2342.46 728.781Z" fill="#FFFFFF" fill-rule="evenodd"/><path d="M2060.14 748.941C2059.75 747.19 2060.15 745.194 2061.33 744.757 2062.52 744.32 2065.55 743.99 2067.23 746.317 2068.29 748.627 2067.98 749.967 2067.3 750.839 2066.62 751.712 2064.64 751.695 2063.14 751.552 2061.85 751.135 2060.53 750.692 2060.14 748.941Z" fill="#FFFFFF" fill-rule="evenodd"/><path d="M2187.36 958.537C2209.73 942.277 2236.35 940.79 2246.84 955.214" stroke="#404040" stroke-width="5.72917" stroke-linecap="round" stroke-miterlimit="8" fill="none" fill-rule="evenodd"/><path d="M2203.5 881.559C2203.5 874.983 2215.7 875.81 2221.87 875.687 2228.03 875.565 2240.5 874.249 2240.5 880.825 2240.5 887.4 2228.03 899.377 2221.87 899.499 2215.7 899.622 2203.5 888.134 2203.5 881.559Z" stroke="#404040" stroke-width="6.875" stroke-miterlimit="8" fill="#404040" fill-rule="evenodd"/><path d="M1983.25 1534.78C1990.81 1460.04 1998.58 1285.97 2043.94 1214.85 2089.3 1143.73 2175.83 1028.61 2239.05 1025.09 2302.26 1021.58 2375.76 1118.66 2423.22 1193.76 2470.68 1268.87 2508.91 1410.6 2523.82 1475.73 2534.35 1530.32 2517.06 1601.59 2496.3 1632.38 2485.63 1663.18 2457.03 1644.33 2428.26 1659.09 2399.49 1673.86 2352.69 1710.38 2323.68 1720.95 2294.66 1731.52 2289.87 1738.46 2257.95 1735.18 2226.02 1731.9 2162.77 1713.25 2132.15 1701.27 2088.92 1689.29 2023.4 1695.75 1998.58 1663.31 1976.74 1597.58 1975.69 1609.52 1983.25 1534.78Z" fill="#D9D9D9" fill-rule="evenodd"/><path d="M1960.9 1835.49C1949.83 1835.23 1899.89 1828.58 1916.31 1810.04 1932.74 1791.5 2029.91 1739.88 2059.43 1724.27 2088.94 1708.66 2084.63 1722.83 2096.33 1722.67 2108.03 1722.51 2133.81 1713.92 2129.65 1723.32 2125.49 1732.72 2085.38 1759.88 2068.45 1772.81 2051.53 1785.74 2038.58 1795.73 2028.11 1800.9 2017.63 1806.07 2015.69 1810.61 2008.13 1812.39 2000.57 1814.18 1990.2 1806.32 1982.75 1811.59 1971.55 1817.36 1971.97 1835.75 1960.9 1835.49Z" fill="#595959" fill-rule="evenodd"/><path d="M2427.46 1720.22C2409.98 1708.6 2406.99 1695.19 2408 1690.92 2409.02 1686.66 2430.49 1691.91 2438.93 1692.41 2447.36 1692.92 2443.23 1687.52 2458.64 1693.95 2474.04 1700.38 2510.42 1721.08 2531.34 1731 2552.26 1740.91 2575.8 1760.05 2591.3 1767.14 2606.81 1774.23 2621.24 1768.66 2624.38 1773.55 2627.51 1778.44 2621.16 1792.37 2616.83 1798.41 2612.51 1804.44 2605.78 1806.61 2598.42 1809.76 2591.07 1812.9 2588.28 1823.28 2572.72 1817.29 2557.16 1811.31 2537.11 1776.87 2512.9 1760.69 2488.69 1744.52 2444.95 1731.85 2427.46 1720.22Z" fill="#595959" fill-rule="evenodd"/><path d="M1765.36 1805.96C1769.49 1795.21 1786.49 1768.75 1798.1 1769 1809.7 1769.26 1835 1793.53 1835 1807.48 1835 1821.43 1812.34 1827.49 1802.06 1831.82 1791.79 1836.15 1779.47 1837.78 1773.35 1833.47 1767.23 1829.16 1761.24 1816.7 1765.36 1805.96Z" fill="#595959" fill-rule="evenodd"/><path d="M2705.28 1752.4C2709.18 1741.82 2725.22 1715.75 2736.18 1716 2747.13 1716.25 2771 1740.17 2771 1753.91 2771 1767.65 2749.61 1773.62 2739.92 1777.89 2730.22 1782.15 2718.6 1783.75 2712.82 1779.51 2707.05 1775.26 2701.39 1762.99 2705.28 1752.4Z" fill="#595959" fill-rule="evenodd"/></g></svg>