<svg width="2338" height="2339" xmlns="http://www.w3.org/2000/svg" xmlns:xlink="http://www.w3.org/1999/xlink" xml:space="preserve" overflow="hidden"><defs><clipPath id="clip0"><rect x="1031" y="68" width="2338" height="2339"/></clipPath></defs><g clip-path="url(#clip0)" transform="translate(-1031 -68)"><path d="M1031 1237.5C1031 591.603 1554.38 68.0001 2200 68.0001 2845.62 68.0001 3369 591.603 3369 1237.5 3369 1883.4 2845.62 2407 2200 2407 1554.38 2407 1031 1883.4 1031 1237.5Z" fill="#3A8AC2" fill-rule="evenodd"/><path d="M1775.28 1650.04C1785.21 1645.08 1792.26 1638.79 1799.93 1631.65 1807.61 1624.51 1813.62 1614.98 1827.05 1607.22 1840.49 1599.46 1884.56 1601.91 1899.82 1593.67 1915.08 1585.44 1874.93 1554.39 1921.29 1566.96 1967.66 1579.52 2134.32 1643.53 2178.01 1669.07 2221.7 1694.61 2156.32 1655.77 2153.02 1669.82 2149.72 1683.87 2129.49 1705.63 2114.21 1718.86 2098.93 1732.09 2090.48 1796.84 2074.18 1807.21 2057.89 1817.59 2052.41 1810.4 2042.1 1814.08 2031.78 1817.77 2025.55 1832.66 2014.6 1839.27 2003.65 1845.89 2000.85 1835.71 1993.21 1837.75 1985.57 1839.78 1984.87 1848.69 1975.64 1855.3 1966.41 1861.92 1948.26 1872.35 1937.82 1877.44 1927.38 1882.53 1916.62 1877.31 1906.12 1882.02 1895.62 1886.73 1886.64 1890.16 1874.8 1898.81 1862.96 1907.46 1845.01 1930.3 1835.07 1933.93 1825.14 1937.55 1822.22 1928.07 1815.21 1927.44 1808.21 1926.8 1804.52 1937.17 1793.82 1939.27 1783.13 1941.37 1770.01 1934.31 1755.63 1934.69 1741.24 1935.07 1714.95 1946.01 1699.1 1946.9 1683.25 1947.79 1673 1942.32 1660.52 1940.03 1648.04 1937.74 1639.45 1924.89 1632.64 1921.71 1625.82 1918.53 1615.7 1926.29 1606.66 1926.29 1597.62 1926.29 1593.68 1918.91 1586.04 1917.13 1578.4 1915.35 1555.7 1924.5 1547.08 1923.24 1538.46 1921.98 1540.56 1911.99 1534.32 1909.57 1528.08 1907.15 1515.79 1911.93 1509.64 1908.74 1503.49 1905.55 1518.72 1896.27 1516.52 1889.65 1514.32 1883.04 1498.33 1874.64 1496.42 1869.04 1494.51 1863.44 1488.6 1859.12 1492.07 1852.25 1495.55 1845.38 1509.14 1838.38 1515.76 1833.17 1522.38 1827.95 1518.81 1817.77 1524.16 1813.32 1529.51 1808.87 1542.35 1812.66 1547.84 1806.45 1553.33 1800.25 1557.6 1790.21 1564.73 1783.72 1571.86 1777.23 1578.41 1768.7 1586.8 1762.94 1595.19 1757.19 1610.42 1762.05 1621.18 1756.84 1631.94 1751.62 1638.24 1740.55 1651.35 1731.65 1664.47 1722.74 1684.01 1702.64 1697.57 1695.01 1711.13 1687.37 1705.59 1690.68 1714.38 1685.85 1723.16 1681.01 1730.2 1667.39 1740.35 1661.42 1750.5 1655.45 1765.35 1655 1775.28 1650.04Z" fill="#A6A6A6" fill-rule="evenodd"/><path d="M1609.17 1012.37C1618.33 892.718 1596.7 773.952 1583.97 671.739 1571.24 569.526 1478.59 427.728 1532.81 399.088 1546.17 322.077 1578.24 512.12 1650.41 573.218 1722.57 634.316 1897.45 719.472 1965.8 765.678 2028.16 799.282 2069.83 808.676 2116.24 844.342 2162.64 880.008 2187.59 944.879 2244.22 979.675 2300.85 1014.47 2374.38 1025.39 2456.02 1053.12 2537.65 1080.84 2593.77 1066 2692.79 1113.94 2791.82 1161.88 2959.18 1310.22 3050.18 1340.77 3173.64 1387.35 3081.87 1292.27 3264 1363.68 3255.6 1418.67 3130.49 1438.27 3059.35 1485.11 2988.2 1531.95 2890.2 1590.89 2837.12 1644.74 2804.29 1696.92 2750.83 1739.94 2717.99 1792.13L2653.85 1941.82C2601.54 1986.24 2532.81 1953.4 2486.61 1934.18 2440.41 1914.96 2409.29 1862.78 2376.64 1826.5 2312.11 1792.77 2280.68 1778.77 2248.35 1755.47 2194.25 1723.59 2205.89 1706.97 2182.67 1686.74L1883.33 1563.01C1800.34 1534.37 1720.92 1545.45 1664.15 1530.93 1607.39 1516.42 1577.86 1502.17 1542.73 1475.95 1507.6 1449.72 1473.62 1406.82 1474 1357.56 1490.8 1310.72 1562.59 1250.14 1579.39 1203.29L1609.17 1012.37Z" fill="#BFBFBF" fill-rule="evenodd"/><path d="M1555.65 618.679C1560.64 605.689 1581.24 573.695 1595.3 574.002 1609.36 574.31 1640 603.66 1640 620.523 1640 637.387 1612.55 644.714 1600.1 649.95 1587.66 655.186 1572.74 657.151 1565.33 651.94 1557.92 646.728 1550.65 631.668 1555.65 618.679Z" fill="#595959" fill-rule="evenodd"/><path d="M2968.9 1387.23C2974.65 1374.08 2998.36 1341.69 3014.55 1342 3030.73 1342.31 3066 1372.03 3066 1389.1 3066 1406.17 3034.4 1413.59 3020.07 1418.89 3005.74 1424.19 2988.57 1426.18 2980.04 1420.9 2971.51 1415.63 2963.15 1400.38 2968.9 1387.23Z" fill="#595959" fill-rule="evenodd"/><path d="M1257.6 1355.96C1251.06 1345.93 1229.16 1298.5 1265.1 1305.75 1301.04 1313 1433.2 1379.29 1473.24 1399.45 1513.28 1419.61 1490.95 1421.45 1498.46 1431.88 1505.98 1442.3 1533.96 1461.94 1518.33 1462 1502.7 1462.06 1440.04 1437.05 1411.56 1427.09 1383.08 1417.14 1361.16 1409.56 1347.46 1402.25 1333.77 1394.95 1326.25 1395.04 1319.07 1388.98 1311.88 1382.92 1316.32 1370.46 1304.36 1365.91 1289.38 1358.2 1264.14 1365.99 1257.6 1355.96Z" fill="#595959" fill-rule="evenodd"/><path d="M2578.5 1991.25C2559.6 1973.14 2559.65 1956.78 2562.18 1952.09 2564.71 1947.4 2590.5 1959.15 2601.09 1961.96 2611.68 1964.76 2609.12 1955.81 2625.72 1968.93 2642.33 1982.04 2676.96 2023.63 2700.72 2040.65 2724.47 2057.67 2755.17 2077.17 2773.42 2088.85 2791.67 2100.53 2811.07 2098.49 2813.65 2104.99 2816.22 2111.49 2804.13 2126.01 2796.89 2131.89 2789.65 2137.76 2780.46 2138.5 2770.2 2140.22 2759.94 2141.95 2753.39 2153.27 2735.32 2142.22 2717.26 2131.17 2701.67 2085.9 2675.53 2060.73 2649.39 2035.57 2597.39 2009.35 2578.5 1991.25Z" fill="#595959" fill-rule="evenodd"/><path d="M1904.81 1376.79C1935.43 1329.8 1998.29 1216.29 2060.21 1187.35 2122.13 1158.41 2233.61 1116.99 2289.03 1140.77 2344.46 1164.55 2376.26 1260.04 2392.78 1330.03 2409.3 1400.02 2396.38 1510.86 2388.16 1560.7 2379.59 1601.66 2361.37 1643.39 2333.61 1655.46 2314.5 1671.69 2293.55 1687.25 2264.08 1685.25 2234.6 1683.25 2245.91 1682.98 2217.57 1678.07 2189.24 1673.16 2124.33 1645.08 2076.05 1624.75 2027.78 1604.42 1950.38 1576.79 1927.94 1556.1 1894.67 1530.19 1887.33 1501.33 1876.48 1469.32 1878.94 1416.21 1874.19 1423.79 1904.81 1376.79Z" fill="#D9D9D9" fill-rule="evenodd"/><path d="M2120.98 1050.57C2134.6 999.783 2184.71 877.987 2244.3 864.566 2303.89 851.145 2458.53 927.223 2478.53 970.041 2498.54 1012.86 2482.7 1073.27 2469.03 1117.2 2455.35 1161.13 2444.49 1194.34 2405.36 1213.8 2366.22 1233.26 2263.15 1251.43 2234.22 1233.94 2205.29 1216.45 2181.48 1195.57 2162.61 1169.28 2143.73 1142.99 2107.36 1101.35 2120.98 1050.57Z" fill="#A6A6A6" fill-rule="evenodd"/><path d="M2164.03 1027.59C2164.73 1009.18 2177.8 976.445 2187.01 968.712 2196.21 960.979 2210.91 971.243 2219.24 981.195 2227.58 991.147 2235.37 1009.69 2237 1028.43 2234.68 1065.38 2231.73 1090.26 2222.7 1098.72 2213.66 1107.18 2191.27 1090.13 2182.79 1079.19 2174.31 1068.25 2163.33 1046 2164.03 1027.59Z" fill="#595959" fill-rule="evenodd"/><path d="M2172.82 1023.61C2176.84 1000.49 2187.01 978.633 2196.54 979.699 2206.07 980.766 2227.58 993.063 2229.99 1030.01 2228.3 1063.4 2221.21 1077.86 2213.37 1084.7 2205.54 1091.55 2192.45 1080.8 2182.99 1071.06 2175.92 1059.11 2168.79 1046.73 2172.82 1023.61Z" fill-rule="evenodd"/><path d="M0.0320486 61.7577C0.734951 43.2952 13.807 10.4734 23.0114 2.71966 32.2157-5.03403 46.9235 5.25678 55.258 15.2359 63.5924 25.2149 71.3925 43.8123 73.0183 62.594 70.7007 99.6453 67.7484 124.598 58.711 133.082 49.6737 141.565 27.2752 124.466 18.7942 113.495 10.3132 102.523-0.670854 80.2202 0.0320486 61.7577Z" fill="#595959" fill-rule="evenodd" transform="matrix(-0.888038 -0.459771 -0.459771 0.888038 2474.05 1052.67)"/><path d="M2139.57 855.53C2135.89 838.401 2113.25 796.401 2120.38 795.037 2127.5 793.674 2168.88 829.898 2182.31 847.346 2195.74 864.795 2200.13 888.93 2200.97 899.727 2201.81 910.524 2185.11 909.839 2178.23 921.274 2171.36 932.71 2166.23 964.287 2159.71 968.34 2153.18 972.394 2141.03 956.901 2139.1 945.597 2137.16 934.292 2153.19 917.888 2142.5 897.809 2136.46 893.196 2143.26 872.658 2139.57 855.53Z" fill="#595959" fill-rule="evenodd"/><path d="M2472.6 989.218C2482.45 975.813 2514.12 969.499 2537.19 968.149 2560.27 966.799 2604 974.905 2611.04 981.12 2618.09 987.336 2584.34 989.175 2571.05 996.26 2557.77 1003.34 2543.65 1016.85 2531.32 1023.63 2518.99 1030.4 2505.96 1032.75 2497.09 1036.91 2488.22 1041.06 2483.34 1057 2478.11 1048.58 2470.68 1043.35 2462.75 1002.62 2472.6 989.218Z" fill="#595959" fill-rule="evenodd"/><path d="M0.353194 45.7435C2.58432 22.37 11.5057-0.264798 21.797 0.00220796 32.0883 0.269214 56.2009 10.7271 62.101 47.3459 63.281 80.7599 56.9909 95.7637 49.2225 103.235 41.454 110.706 26.4868 101.087 15.4901 92.1726 6.85355 80.8549-1.87793 69.117 0.353194 45.7435Z" fill-rule="evenodd" transform="matrix(-0.89761 -0.440791 -0.440791 0.89761 2461.78 1061.92)"/><path d="M2217.91 1010.09C2217.34 1013.62 2215.04 1017.04 2212.4 1017 2209.75 1016.96 2203.55 1015.38 2202.04 1009.85 2201.73 1004.8 2203.35 1002.53 2205.35 1001.4 2207.34 1000.28 2211.19 1001.73 2214.02 1003.08 2216.24 1004.79 2218.48 1006.56 2217.91 1010.09Z" fill="#FFFFFF" fill-rule="evenodd"/><path d="M2441.91 1075.66C2441.34 1079.41 2439.04 1083.04 2436.4 1083 2433.75 1082.96 2427.55 1081.28 2426.04 1075.4 2425.73 1070.04 2427.35 1067.63 2429.35 1066.43 2431.34 1065.23 2435.19 1066.77 2438.02 1068.21 2440.24 1070.02 2442.48 1071.91 2441.91 1075.66Z" fill="#FFFFFF" fill-rule="evenodd"/><path d="M2431.03 1061.02C2431.25 1059.48 2432.11 1057.98 2433.1 1058 2434.09 1058.02 2436.42 1058.71 2436.99 1061.13 2437.1 1063.34 2436.49 1064.33 2435.74 1064.82 2435 1065.32 2433.55 1064.68 2432.49 1064.09 2431.66 1063.34 2430.82 1062.57 2431.03 1061.02Z" fill="#FFFFFF" fill-rule="evenodd"/><path d="M2200.03 993.591C2200.25 992.267 2201.11 990.985 2202.1 991 2203.09 991.015 2205.42 991.608 2205.99 993.682 2206.1 995.575 2205.49 996.425 2204.74 996.848 2204 997.271 2202.55 996.727 2201.49 996.222 2200.66 995.58 2199.82 994.915 2200.03 993.591Z" fill="#FFFFFF" fill-rule="evenodd"/><path d="M2264.82 1149.07C2266.51 1144.08 2276.24 1148.06 2281.29 1149.67 2286.35 1151.28 2296.85 1153.71 2295.16 1158.7 2293.48 1163.69 2280.24 1169.35 2275.19 1167.74 2270.13 1166.14 2263.13 1154.06 2264.82 1149.07Z" stroke="#404040" stroke-width="6.875" stroke-miterlimit="8" fill="#404040" fill-rule="evenodd"/></g></svg>